<?xml version="1.0" encoding="utf-8"?>
<!-- Generator: Adobe Illustrator 27.5.0, SVG Export Plug-In . SVG Version: 6.00 Build 0)  -->
<svg version="1.1" xmlns="http://www.w3.org/2000/svg" xmlns:xlink="http://www.w3.org/1999/xlink" x="0px" y="0px"
	 viewBox="0 0 1200 1200" style="enable-background:new 0 0 1200 1200;" xml:space="preserve">
<g id="background">
	<rect style="fill:#F7F6F5;" width="1200" height="1200"/>
</g>
<g id="graphic_element">
	<g>
		
			<line style="fill:none;stroke:#3D3017;stroke-width:7.3534;stroke-linecap:round;stroke-linejoin:round;stroke-miterlimit:10;" x1="524.487" y1="989.347" x2="658.28" y2="989.347"/>
		<g>
			<path style="fill:#3D3017;" d="M651.467,886.186l-5.082,49.112c-2.846,27.5-25.352,49.203-52.984,50.079
				c-0.604,0.019-1.21,0.029-1.817,0.029h0c-0.601,0-1.2-0.009-1.798-0.028c-27.833-0.873-50.426-22.893-53.023-50.619l-4.529-48.36
				L651.467,886.186z"/>
			
				<path style="fill:none;stroke:#3D3017;stroke-width:5.2524;stroke-linecap:round;stroke-linejoin:round;stroke-miterlimit:10;" d="
				M648.285,897.613c8.453-5.118,29.507-3.015,31.441,15.741c1.518,14.723-6.745,29.171-22.821,33.103
				c-4.82,1.179-9.623,1.243-14.08,0.367"/>
		</g>
		<g>
			<path d="M589.777,842.563c0.273,1.818,1.047,3.754,2.406,5.744c2.758,4.04,6.701,7.544,9.082,11.944
				c1.184,2.189,1.91,4.564,1.799,7.072c-0.09,2.033-0.779,6.361-2.737,7.496c8.705-5.047,6.775-15.57,1.679-22.552
				c-1.511-2.07-3.006-4.094-4.307-6.302c-1.3-2.208-2.17-4.793-1.764-7.323c0.304-1.895,2.956-7.779,5.224-8.077
				C593.741,831.541,588.847,836.368,589.777,842.563z"/>
			<path d="M566.278,829.401c0.257,1.71,0.984,3.53,2.263,5.402c2.593,3.8,6.302,7.094,8.542,11.233
				c1.114,2.058,1.797,4.292,1.692,6.651c-0.085,1.912-0.733,5.982-2.574,7.05c8.187-4.747,6.583-14.737,1.79-21.303
				c-1.421-1.946-3.038-3.757-4.261-5.834c-1.223-2.076-2.041-4.508-1.659-6.887c0.286-1.782,2.78-7.316,4.913-7.596
				C570.007,819.035,565.404,823.575,566.278,829.401z"/>
		</g>
	</g>
	<g>
		<g>
			<path style="fill:#3D3017;" d="M607.227,379.763c23.905-4.947,42.238-33.446,42.238-67.869s-18.333-62.921-42.238-67.869
				c-0.859-0.178-1.646,0.596-1.646,1.605v132.528"/>
			<path style="fill:#3D3017;" d="M596.86,378.158V245.63c0-1.009-0.787-1.782-1.646-1.605
				c-23.905,4.947-42.238,33.446-42.238,67.869s18.333,62.921,42.238,67.869"/>
		</g>
		<g>
			<path style="fill:#3D3017;" d="M684.138,411.584c22.819,8.672,53.594-5.513,72.089-34.544
				c18.496-29.032,18.346-62.918,0.844-79.934c-0.629-0.611-1.708-0.382-2.25,0.469l-71.208,111.772"/>
			<path style="fill:#3D3017;" d="M676.257,404.66l71.208-111.772c0.542-0.851,0.294-1.926-0.526-2.238
				c-22.819-8.672-53.594,5.513-72.09,34.544c-18.496,29.031-18.346,62.918-0.843,79.934"/>
		</g>
		<g>
			<path style="fill:#3D3017;" d="M520.253,411.584c-22.819,8.672-53.594-5.513-72.09-34.544
				c-18.496-29.032-18.346-62.918-0.843-79.934c0.629-0.611,1.708-0.382,2.25,0.469l71.209,111.772"/>
			<path style="fill:#3D3017;" d="M528.134,404.66l-71.209-111.772c-0.542-0.851-0.294-1.926,0.526-2.238
				c22.819-8.672,53.594,5.513,72.09,34.544c18.496,29.031,18.346,62.918,0.843,79.934"/>
		</g>
	</g>
</g>
<g id="Text">
	<text transform="matrix(1 0 0 1 221.3496 650.7803)" style="fill:#3D3017; font-family:'Bitter-Bold'; font-size:200px;">COFFEE</text>
	<g>
		
			<text transform="matrix(1.0772 0 0 1 237.3281 768.7529)" style="fill:#3D3017; font-family:'SourceSansPro-Bold'; font-size:70px;">Espresso Yourself</text>
	</g>
	<g>
		<circle style="fill:#3D3017;" cx="148.034" cy="576.909" r="14.619"/>
		<circle style="fill:#3D3017;" cx="1049.966" cy="576.909" r="14.619"/>
	</g>
</g>
</svg>
